<svg xmlns="http://www.w3.org/2000/svg" width="1135" height="913.534" viewBox="0 0 1135 913.534">
  <defs>
    <style>
      .cls-1 {
        fill: #77567a;
        fill-rule: evenodd;
      }
    </style>
  </defs>
  <path id="Purple_Test_3" data-name="Purple Test 3" class="cls-1" d="M393,141c89.734-1.8,147.143,20.259,207,47,2.3,1.029,4.124,3.784,6,5,13.169,8.535,27.321,13.512,40,22,4.34,2.905,12.3,12.326,17,11,7.6-2.522,13.793-10.615,20-15,14.686-10.377,30.6-19.6,46-29,25.067-15.3,58.059-25.154,89-34l36-6c12.8-2.961,33.952-.378,44,2,10.439,2.47,18.438,1.256,28,4,25.716,7.38,49.792,16.459,70,29,12.8,7.944,25.17,14.315,37,23,12.5,9.176,23.66,21.556,33,34,8.21,10.938,18.57,21.085,26,33,16.97,27.231,25.29,56.894,35,92,8.16,29.485,11.58,88.131,3,121-7.32,28.074-13.15,56.006-24,81-25.91,59.723-60.83,109.188-96,159-51.674,73.182-111.648,141.614-183,195-40.246,30.112-79.742,62.006-121,91-22.565,15.86-48.113,28.49-67,48-22.689,1.9-34.32-12.71-49-22-23.5-14.88-46.885-29.41-70-44-20.975-13.239-40.309-22.545-55-42l-12-11c-14.314-18.963-32.682-34.046-47-53l-12-11c-13.878-18.366-33.638-33.324-47-51-28.206-37.312-65.808-66.691-94-104-10.236-13.546-24.576-24.205-35-38-10.24-13.551-24.564-24.189-35-38l-12-11c-14.326-18.948-32.676-34.044-47-53-6.627-8.77-17.372-15.231-24-24-19.679-26.038-45.319-46.95-65-73-8.766-11.6-31.037-25.422-35-40-4.465-16.422,22.468-33.834,30-41,9.316-8.863,18.89-17.892,28-27,4.472-4.471,8.536-10.651,14-14,4.191-2.569,13.051-4.468,19-2,9.743,4.042,18.851,17.856,25,26,3.544,4.693,9.822,6.841,12,13h1c10.132-113.886,77.384-194.3,164-232,19.283-8.392,40.947-12.708,63-18C364.518,141.956,386.8,144.865,393,141Zm-15,22c-6.158,3.655-17.693,1.138-25,3-18.239,4.647-36.687,8.912-53,16-82.949,36.042-148.514,117.686-151,234,6.149,4.389,11.412,11.928,16,18,12.356,16.351,29.459,29.4,42,46,6.627,8.77,17.37,15.232,24,24,24.667,32.622,57.339,58.364,82,91l9,8a184.418,184.418,0,0,1,15,18l12,11c35.013,46.3,82,82.689,117,129,10.523,13.925,25.288,24.825,36,39l11,10c14.338,18.95,32.666,34.031,47,53l11,10c6.244,10.252,8.78,21.742,15,32,10.855,17.9,20.809,37.817,30,57,89.767-33.446,167.419-85.445,239-138,20.308-14.91,37.791-33.738,58-49,6.551-4.947,11.475-13.063,18-18,14.29-10.812,25.741-24.225,40-35l18-19c8.366-6.324,18.86-14.6,25-23,23.55-32.227,49.29-74.057,66-112,11.8-26.8,19.7-55.551,28-86,10.71-39.267,4.98-102.867-6-136-28.14-84.947-70.22-135.082-150-168-17.2-7.1-36.5-9.411-56-14-24.255-5.709-56.636.378-75,6-12.087,3.7-22.928,4.428-34,9-40.84,16.864-75.915,37.7-109,62-11.242,8.256-23.105,19.105-33,29-4.6,4.6-7.942,12-16,13-11.543-16.96-37.907-35.715-55-48C521.953,197.593,467.139,163.452,378,163ZM83,374c-4.867,7.151-19.738,19.514-27,25-13.067,9.872-22.163,25.827-36,35v1h1c11.92,18.1,30.846,31.592,44,49,4.385,5.8,10.893,9.576,15,16h1v-1c10.716-6.9,17.122-18.528,27-26,9.707-7.343,29.569-24.25,36-34-8.5-5.671-15.853-15.864-22-24-6.626-8.77-17.372-15.231-24-24C93.666,385.267,88.829,378.116,83,374Zm73,81c-4.732,7.087-12.206,12.866-19,18l-20,21c-6.975,5.273-18.9,13.386-22,22a22.433,22.433,0,0,1,8,9,2.834,2.834,0,0,0,1-1c15.517-9.711,31.5-30.146,45-43,5.466-5.2,14.256-9.3,17-17h-1A14.923,14.923,0,0,0,156,455Zm23,25c-4.967,7.416-12.882,13.621-20,19l-20,21c-6.547,4.951-19.132,13.045-21,22,10.8,7.223,27.846,28.208,36,39l11,10c14.331,18.955,32.667,34.031,47,53l9,8a184.276,184.276,0,0,1,15,18l12,11c35.006,46.3,82.006,82.689,117,129,6.627,8.77,17.37,15.232,24,24,14.33,18.951,32.679,34.048,47,53l12,11c5.055,6.685,25.238,31.571,32,34,4.714-7.088,12.214-12.873,19-18l21-22c7.733-5.844,16.637-12.919,22-21-10.469-7-27.085-27.525-35-38l-12-11c-14.338-18.965-32.674-34.041-47-53-9.347-12.37-25.648-23.631-35-36-31.743-41.983-74.27-75.008-106-117-9.347-12.37-25.647-23.631-35-36-19.976-26.417-44.92-50.426-68-74C196.728,498.572,189.269,483.687,179,480ZM555,889c-3.039,4.42-8.243,7.246-12,11-11,10.988-21.9,22.127-33,33-5.162,5.055-13.339,8.594-16,16h1c4.191,4.136,9.827,5.737,15,9,13.767,8.685,27.16,19.432,42,27v-2c-3.883-6-2.516-29.219-1-35,4-2.007,6.166-3.05,13-3,4.715,3.174,16.254,3.76,23,4v-1c-2.566-2.851-2.878-6.51-5-10-7.242-11.913-13.744-26.1-21-38C558.576,896.023,558.521,891.785,555,889Zm16,79q1,11.5,2,23c18.19,11.17,34.62,26.05,54,36-5.972-13.77-14.127-26.84-21-40-3.7-7.083-3.1-14.8-14-15C587.408,969.05,576.614,969.1,571,968Z" transform="translate(0 -140.656)"/>
</svg>
