<svg xmlns="http://www.w3.org/2000/svg" xmlns:xlink="http://www.w3.org/1999/xlink" width="1135" height="916.562" viewBox="0 0 1135 916.562">
  <defs>
    <style>
      .cls-1 {
        fill-rule: evenodd;
        fill: url(#linear-gradient);
      }
    </style>
    <linearGradient id="linear-gradient" x1="566.938" y1="1055.5" x2="566.938" y2="138.938" gradientUnits="userSpaceOnUse">
      <stop offset="0" stop-color="#77567a"/>
      <stop offset="1" stop-color="#c77ac0" stop-opacity="0.996"/>
    </linearGradient>
  </defs>
  <path id="Purple_Test_2" data-name="Purple Test 2" class="cls-1" d="M391,140c11.346,1.794,29.98-3.166,44,0,7.255,1.638,16.787-.227,25,2,13.728,3.723,31.036,6.33,44,10l20,3c1.112,0.553,2.891,3.432,4,4,9.185,4.7,19.689,4.938,29,9,9.7,4.233,20.3,10.767,30,15l16,5c16.484,8.748,33.146,19.905,49,30,3.934,2.5,5.939,6.287,11,8,9.269-12.609,27.752-20.234,41-29,52.8-34.933,146.689-75.67,234-47,96.39,31.652,152.28,89.286,184,186a258.206,258.206,0,0,1,13,82v30c-1.81,8-.89,17.617-3,26-5.94,23.547-9.22,47.652-18,69-12.37,30.078-24.67,60.3-41,87-17.95,29.359-38.51,57.391-58,85-63.464,89.889-136.582,164.139-225,229-24.1,17.675-47.5,37.767-72,55-13.227,9.31-26.7,16.74-40,26-8.344,5.81-17.29,10.96-26,17-4.569,3.17-6.422,9.6-12,12-16.906,7.26-38.651-14.08-48-20-26.166-16.57-52.233-32.72-78-49-17.6-11.118-36.688-19.711-49-36-35-46.308-82-82.69-117-129-10.524-13.924-25.287-24.826-36-39-13.38-17.7-33.14-32.662-47-51l-11-10c-14.621-19.321-33.391-34.67-48-54l-11-10c-17.875-23.622-41.134-42.362-59-66-6.628-8.77-17.367-15.234-24-24-23.249-30.726-53.76-55.249-77-86-8.637-11.428-30.548-25.239-35-39-5.1-15.776,8.206-23.207,14-29,12.67-12.67,26.306-24.352,39-37,6.169-6.146,12.736-16.4,21-20,3.968-1.728,10.611-1.044,16-1,1.769,1.67,3.842,1.52,6,3l31,34h1v-2c4.768-7.968,2.364-21.57,5-31,5.113-18.293,9.816-37.06,17-54,25.332-59.734,67-99.788,120-132,22.71-13.8,51.348-20.427,80-28C357.512,142.015,386.505,142.82,391,140Zm-12,23-30,4c-17.663,4.71-35.1,9.09-51,16-87.137,37.857-140.276,115.834-149,233,6.916,4.682,12.95,13.316,18,20l12,11c5.877,7.777,12.152,14.261,18,22,6.627,8.77,17.37,15.232,24,24,24.669,32.625,57.341,58.367,82,91l12,11c10.429,13.792,24.759,24.457,35,38,35.287,46.664,82.728,83.324,118,130,10.236,13.545,24.575,24.205,35,38,13.343,17.656,33.148,32.671,47,51,5.726,7.577,15.656,13.127,21,21,4.586,6.757,5.757,15,10,22,12.782,21.08,24.174,44.4,35,67,79.006-33.01,149.306-73.713,215-120,23.436-16.513,44.141-36.757,67-54,5.427-4.094,9.591-10.909,15-15,16-12.1,29.032-26.933,45-39l14-15c8.624-6.521,14.633-15.676,23-22,6.1-4.607,13.48-9.941,18-16,31-41.6,56.92-88.975,78-140,8.38-20.284,12.2-42.753,18-65,7.24-27.772,5.01-83.421-2-109-4.49-16.385-5.98-30.4-12-45-17.14-41.572-42.11-81.107-76-106-11.47-8.422-23.544-14.4-36-22-18.768-11.445-41.193-19.225-65-26l-23-3c-11.111-2.517-34.428-3.95-47-1-17.649,4.141-35.506,6.385-52,12-38.075,12.963-72.711,32.708-103,54-14.346,10.084-26.955,22.394-41,33-7.577,5.722-12.444,17.548-22,21-12.025-17.666-40.966-38.327-59-51C519.8,197.023,465.793,163.453,379,163ZM83,374c-3.206,4.777-8,7.084-12,11-11.441,11.2-22.666,22.684-34,34-5.058,5.05-14.31,8.879-16,17,5.1,3.414,8.306,8.111,12,13l12,11c6.714,8.879,14.442,16.059,22,24,4.734,4.974,7.938,12.464,15,15,3.207-4.777,8-7.084,12-11,11.1-10.872,22.008-22.011,33-33,4.922-4.921,14.369-9.173,16-17-4.836-3.226-7.212-7.744-11-12-10.879-12.225-25.158-22.979-35-36C92.829,384.481,88.425,378.174,83,374Zm73,81c-5.616,8.41-14.934,15.9-23,22l-21,22c-5.764,4.357-14.4,9.786-17,17h1c2,3.2,5.109,6.673,9,8,3.382-5.046,8.79-7.806,13-12,11.013-10.971,21.9-22.125,33-33,4.907-4.806,12.458-7.928,15-15C162.088,461.171,161.083,456.808,156,455Zm24,25c-8.136,8.587-17.135,16.107-26,24l-19,20c-5.757,4.354-14.415,9.788-17,17,5.826,4.156,10.654,11.248,15,17,10.252,13.568,24.559,24.182,35,38,6.627,8.77,17.371,15.232,24,24,24.4,32.266,56.606,57.716,81,90,9.347,12.37,25.649,23.631,35,36,28.206,37.307,65.8,66.68,94,104,7.275,9.628,17.541,17.128,25,27l12,11c11.765,15.564,28.536,27.6,39,44h1v-1c17.227-10.75,28.117-29.976,44-42,5.915-4.478,16.317-10.773,18-19-10.8-7.222-27.846-28.209-36-39l-11-10c-17.865-23.63-41.137-42.359-59-66-6.627-8.77-17.371-15.232-24-24-35.009-46.3-82.006-82.687-117-129l-9-8a184.276,184.276,0,0,1-15-18l-12-11c-13.883-18.362-33.637-33.325-47-51C203.362,503.9,190.311,486.826,180,480ZM555,889c-3.164,4.721-8.066,7.1-12,11-11.38,11.279-22.66,22.679-34,34-4.739,4.731-12.541,8.165-15,15,5.81,1.755,9.475,6.141,14,9,14.2,8.974,28.3,18.395,43,26V974c-3.259-4.972-2.177-19.439-1-25,10.441-6.778,23.309-.88,37,0v-1c-5.13-4.35-6.753-12.753-10-19-4.654-8.954-10.39-18.16-15-27C559.6,897.4,558.868,892.066,555,889Zm16,80c2.026,6.043,2.02,14.5,2,22,12.787,7.885,25.137,16.49,38,25,4.846,3.2,8.932,7.96,15,10v-2c-8.631-8.97-15.216-28.881-22-40-2.625-4.3-2.031-8.97-7-11C591.526,969.417,578.968,969.017,571,969Z" transform="translate(0 -138.938)"/>
</svg>
