<svg xmlns="http://www.w3.org/2000/svg" width="1105" height="877.094" viewBox="0 0 1105 877.094">
  <defs>
    <style>
      .cls-1 {
        fill: #fff;
        fill-rule: evenodd;
      }
    </style>
  </defs>
  <path id="Color_Fill_3" data-name="Color Fill 3" class="cls-1" d="M632,1033c-8.229.24-34.871-18.7-43-25-5.567-4.31-16.371-4.93-18-13,0.278-.927-0.573-8.352-1-9-4.764-4.957-12.008-9.438-18-13v2c1.479,2.037,1.607,7.889,1,9-1.18.8-1.681,0.773-4,1-3.481-4.3-8.554-4.583-13-8-9.989-7.677-42.119-25.2-44-30,3.221-3.4,8.349-7.339,10-12-3.594-1.281-13.023-10.819-15-9-2.76,1.862-3.9,4.536-7,6-1.153.822-1.24,0.47-4,1-2.7-7.877-9.6-10.133-15-16-5.819-6.321-9.985-13.908-16-20-1.566-1.586-5.678-2.348-7-4l1-3c-17.158-17.054-38.516-33.534-57-52A1055.1,1055.1,0,0,1,271,708c-1.737-2.41-5.975-3.756-8-6-3.026-3.353-4.78-7.873-8-11l-4-1v-3c-1.114-1.607-3.663-1.642-5-3-5.853-5.942-11.053-13.247-16-20l-9-7-1-4c-2.157-2.793-6.992-4.011-9-7-1.225-1.823-.514-3.636-2-5l-4-1c-2.065-2-2.015-5.886-4-8-1.41-1.5-4.542-1.528-6-3-1.569-1.584-1.621-4.183-3-6-2.491-3.282-7.2-5.013-10-8l-1-4c-2.378-2.775-6.612-4.287-9-7l-1-4c-2.317-2.688-6.919-4.153-9-7-1.794-2.455-1.859-5.04-4-7-1.8-1.647-4.636-1.966-6-4v-3c-1.8-2.278-6.041-2.871-8-5l-2-6c-1.374-1.584-4.53-1.512-6-3-2-2.025-2-5.977-4-8-6.127-6.192-15.093-8.932-17-19,7.425-3.76,28.236-24.586,33-31,3.7-4.98,9.222-4.516,10-13-2.2-3.165-2.613-9.263-4-13h-2c-12.68,19.365-33.389,27.128-46,46-5.691-2.588-11.468-7.426-13-14,11.772-9.231,24.071-22.472,33-33,2.705-3.189,7.587-5.423,11-8,3.588-2.709,5.524-8.383,9-11,1.316-.991,3.164.422,4-1V449c-2.871-4.433-2.092-27.4-2-35,0.392-32.235,6.06-62.107,15-86,30.929-82.661,73.02-127.441,156-158,19.936-7.342,65.678-18.88,95-12,15.421,3.618,31.385,5.122,46,10a423.479,423.479,0,0,1,110,56,324.968,324.968,0,0,1,39,32c6.485,6.355,14.029,17.757,23,21,8.848-13.028,31.867-30.28,45-40,16.181-11.975,32.492-25.139,50-36,31.25-19.385,67.854-30.611,108-41,23.048-5.964,58.232-4.042,79,2,14.722,4.283,27.686,5.515,41,11,33.668,13.871,74.56,38.92,95,66,24.27,32.157,40.94,61.654,55,105,4.68,14.411,4.53,30.679,8,46,1.99,8.79-2.06,19.593,2,26,3.22,2.588,6.1,4.293,9,7,0.22,10.484-3.05,16.3-5,24v23c-5.04,21.685-7.24,43.768-14,64-21.62,64.754-54.81,120.784-92,170-8.52,11.28-20.684,20.369-31,30-8.952,8.358-16.168,19.575-26,27-5.962,4.5-14.483,9.153-19,15-31.745,41.1-71.274,77.85-113,109-15.683,11.708-30.171,26.363-46,38-33.2,24.4-65.736,50.136-100,73-11.143,7.44-22.144,14.81-33,22-4.317,2.86-12.34,4.62-15,9C631.344,1028.68,631.637,1030.14,632,1033ZM80,372c3.042-.075,2.744-0.756,4,0,6.4,2.366,9.791,10.217,14,15,0.912,1.036,2.993.06,4,1q0.5,2,1,4c2.108,2.835,6.949,4.22,9,7,6.462,8.76,12.947,16.751,20,25,4.96,5.8,12.98,8.142,14,18-6.645,3.527-19.226,15.174-24,21-1.1,1.343-1.635,4.052-3,5-7.244,5.03-7.611,6.6-13,13-5.534.665-18.946,14.885-23,21-6.567-3.207-8.278-8.21-13-13l-4-1v-3c-2.428-3.3-7.207-5.043-10-8l-1-4c-2.143-2.485-6.9-4.564-9-7l-1-4c-2.474-3.163-7.6-4.679-10-8l-1-4c-5.148-5.516-13.855-8.537-15-18,6.621-3.751,10.629-10.954,16-16,4.312-4.051,11.656-12.041,16-15h3c3.965-3.329,6.353-9.258,10-13C68.918,382.954,78.039,379.785,80,372Z" transform="translate(-19 -155.906)"/>
</svg>
